<?xml version="1.0" encoding="UTF-8" standalone="no"?>
<svg width="65px" height="43px" viewBox="0 0 65 43" version="1.1" xmlns="http://www.w3.org/2000/svg" xmlns:xlink="http://www.w3.org/1999/xlink">
    <!-- Generator: Sketch 39.1 (31720) - http://www.bohemiancoding.com/sketch -->
    <title>icon-lg-device</title>
    <desc>Created with Sketch.</desc>
    <defs></defs>
    <g id="Symbols" stroke="none" stroke-width="1" fill="none" fill-rule="evenodd">
        <g id="icon-lg-device" fill="#607D8B">
            <g transform="translate(32.500000, 21.500000) rotate(90.000000) translate(-32.500000, -21.500000) translate(11.000000, -11.000000)">
                <path d="M42.0414322,1.99180474 L41.0828644,0.995902369 L41.0828644,64.0040976 L42.0414322,63.0081953 L0.958567809,63.0081953 L1.91713562,64.0040976 L1.91713562,0.995902369 L0.958567809,1.99180474 L42.0414322,1.99180474 Z M-1.57408194e-13,2.13273388e-13 L-1.57408194e-13,0.995902369 L-1.57408194e-13,64.0040976 L-1.57408194e-13,65 L0.958567809,65 L42.0414322,65 L43,65 L43,64.0040976 L43,0.995902369 L43,2.13162821e-13 L42.0414322,2.13162821e-13 L0.958567809,2.13162821e-13 L-1.57408194e-13,2.13273388e-13 Z" id="Rectangle-path"></path>
                <polygon id="Shape" points="25.535036 6.08177044 25.535036 4.08177044 17.6720434 4.08177044 17.6720434 6.08177044"></polygon>
                <polygon id="Shape" points="42.2438953 53.0221305 42.2438953 51.0221305 0.96318408 51.0221305 0.96318408 53.0221305"></polygon>
                <polygon id="Shape" points="42.2438953 10.1635409 42.2438953 8.16354089 0.96318408 8.16354089 0.96318408 10.1635409"></polygon>
                <path d="M24.5324719,58.1447862 C24.5324719,56.4653517 23.2211443,55.103901 21.6035397,55.103901 C19.9859351,55.103901 18.6746075,56.4653517 18.6746075,58.1447862 C18.6746075,59.8242207 19.9859351,61.1856714 21.6035397,61.1856714 C23.2211443,61.1856714 24.5324719,59.8242207 24.5324719,58.1447862 Z M20.6009756,58.1447862 C20.6009756,57.5699212 21.0498388,57.103901 21.6035397,57.103901 C22.1572405,57.103901 22.6061038,57.5699212 22.6061038,58.1447862 C22.6061038,58.7196512 22.1572405,59.1856714 21.6035397,59.1856714 C21.0498388,59.1856714 20.6009756,58.7196512 20.6009756,58.1447862 Z" id="Oval"></path>
            </g>
        </g>
    </g>
</svg>