<?xml version="1.0" encoding="utf-8"?>
<!-- Generator: Adobe Illustrator 18.0.0, SVG Export Plug-In . SVG Version: 6.00 Build 0)  -->
<!DOCTYPE svg PUBLIC "-//W3C//DTD SVG 1.1//EN" "http://www.w3.org/Graphics/SVG/1.1/DTD/svg11.dtd">
<svg version="1.1" id="Layer_1" xmlns="http://www.w3.org/2000/svg" xmlns:xlink="http://www.w3.org/1999/xlink" x="0px" y="0px"
	 viewBox="0 0 67.4 67.1" enable-background="new 0 0 67.4 67.1" xml:space="preserve">
<path d="M26.1,0.1c-4.9,0.7-8.9,4-10.7,8.6l-0.4,1.1l-1.4,0c-1.6,0-2.5,0.1-3.8,0.6c-1.8,0.7-3.6,2.2-4.5,3.7
	C2.9,18.4,4,23.8,8,26.6c1.6,1.1,3.2,1.6,5.3,1.6c2.3,0,4.1-0.6,5.2-1.7c1.3-1.2,1.8-2.7,1.7-4.6c0-1-0.1-1.3-0.4-1.9
	c-0.4-0.9-1.2-1.8-2.1-2.2c-0.5-0.2-0.7-0.3-1.6-0.3c-1,0-1.2,0-1.7,0.3c-1,0.5-1.4,1.2-1.4,2.3c0,0.8,0.2,1.3,0.7,1.6
	c0.8,0.5,1.6,0.1,1.9-0.8c0.2-0.7,0.8-1.1,1.3-1c0.9,0.2,1.2,0.9,0.8,1.9c-0.7,1.4-1.7,2-3.2,2c-0.8,0-1,0-1.5-0.3
	c-1.3-0.7-1.9-1.9-1.8-3.6c0.1-1.2,0.4-2,1.2-2.9c1.1-1.1,2.5-1.6,4.3-1.5c0.9,0,1.1,0.1,2,0.5c1.7,0.8,3,2.5,3.5,4.4
	c0.3,1.1,0.2,3.1-0.2,4.2l-0.3,0.8l0.7,0.3c0.9,0.5,2.8,1.1,3.8,1.3l0.8,0.1l-0.2,0.3c-0.1,0.2-0.6,0.9-1,1.6
	c-0.5,0.7-0.8,1.3-0.8,1.3c0,0,0.4,0.5,0.8,1.1c0.4,0.5,0.8,1,0.8,1c0,0-0.8,1.2-1.9,2.6l-1.9,2.6l0.4,0.1c1.8,0.5,2.8,0.8,2.9,0.9
	c0.1,0.1,0,0.3-0.4,0.8c-0.8,1-1.5,2.6-1.9,3.9c-0.5,1.8-0.6,3.5-0.5,6.6c0,1.5,0.1,3,0.1,3.3c0,0.9-0.3,1.7-0.7,2.3
	c-1.7,2.2-5.6,2.6-10.8,1.2c-1-0.3-1.9-0.5-1.9-0.5c0,0,0.4,0.6,1,1.2c2,2.2,3.6,3.6,5.9,4.9c0.5,0.3,0.9,0.5,0.9,0.6
	c0.1,0.1,1.6,0.9,3.1,1.5c3.8,1.6,7.6,2.4,11.9,2.5c6,0.2,11.2-1,16.5-3.6c2.7-1.4,4.3-2.5,6.8-4.8c4.4-4,7.2-8.8,8.3-13.9
	c0.2-1.1,0.3-1.7,0.3-3.6c0-2.1-0.2-4-0.4-4.1c0,0-0.5,0.1-1,0.2c-0.7,0.2-1.1,0.3-2.1,0.3c-1.8,0-3-0.4-4.5-1.5
	c-0.8-0.6-1.2-1-1.7-2.1C54,32.2,54,30.5,54.7,29c0.4-0.9,1.5-1.9,2.4-2.4c0.6-0.3,0.8-0.3,1.8-0.3c1,0,1.1,0,1.8,0.4
	c1.4,0.8,2.1,2.2,1.8,3.5c-0.3,1.4-1.6,2.6-2.9,2.6c-0.5,0-1.7-0.3-1.9-0.5c-0.2-0.2-0.4-0.8-0.4-1.1c0.1-0.5,0.6-0.9,1.1-0.9
	c0.2,0,0.5,0.1,0.7,0.2c0.1,0.1,0.4,0.2,0.7,0.2c0.6,0,0.9-0.3,0.9-0.9c0.1-1-0.8-1.8-1.9-1.8c-1.1,0-2.1,0.7-2.6,1.9
	c-0.4,0.8-0.3,2.2,0.1,3.1c0.6,1.2,1.9,2.2,3.4,2.5c0.8,0.2,2.3,0.1,3-0.2c2.4-1,4.3-3.6,4.6-6.4c0.3-3.8-1.7-8.1-4.8-10.2
	c-0.9-0.6-2.2-1.2-2.2-1.1c-0.2,0.5-1.1,1.7-1.8,2.4c-1,0.9-1.9,1.5-3.2,1.9c-1.1,0.4-3.1,0.4-4.1,0.1c-2.8-0.9-4.4-3-4.4-5.6
	c0-2.7,1.9-4.8,4.3-4.9c1.1,0,1.8,0.3,2.6,1.1c0.8,0.8,1.1,1.5,1,2.7c-0.1,1-0.4,1.6-1.2,2.4c-0.7,0.6-1.2,0.7-1.7,0.3
	c-0.7-0.6-0.5-1.4,0.3-1.9c0.5-0.3,0.7-0.6,0.7-1.2c0-1.5-2.2-1.9-3.3-0.6c-0.6,0.6-0.7,1-0.7,2.2c0,1,0,1.2,0.3,1.7
	c0.6,1.2,2.1,2.1,3.6,2.2c2.7,0.2,5.2-1.6,6-4.3c0.3-0.9,0.2-1.9-0.2-3.6c-1-4.1-4.1-7.1-8.3-8.3C49.6,4.1,49.1,4,47.5,4
	c-1.7,0-2,0-3,0.3c-1.3,0.4-2.9,1.1-3.8,1.8L40,6.6l-0.4-0.6c-0.6-0.9-2.3-2.6-3.3-3.4C33.4,0.6,29.6-0.4,26.1,0.1z M38.9,12.2
	c0.4,1,1.7,3.4,2.4,4.5c1.1,1.7,2,2.8,3.4,4.1c1.5,1.5,2.6,2.2,4.5,3.2l1.4,0.7l0.4,1c0.7,1.8,1.4,4,1.3,4.1c-0.1,0.1-0.5-0.2-1-0.7
	c-4.4-3.5-8.4-6-12.2-7.7c-1.6-0.7-3.8-1.5-4.9-1.8c-0.3-0.1-0.5-0.2-0.5-0.3c0-0.1,5-7.7,5.1-7.7C38.7,11.6,38.8,11.9,38.9,12.2z
	 M32.4,22.2c3.5,0.7,5.2,1.2,7.3,2.2c4.6,2.1,9.4,5.8,13.4,10.5c1.5,1.8,2.8,5.2,3.1,8.3c0.5,4.4-1.4,9.1-5.2,13.4
	c-0.9,1-2.6,2.6-2.7,2.5c0,0-0.1-0.7-0.2-1.5c-0.1-1.2-0.5-3.8-0.8-4.5c0-0.1-0.3,0.2-0.9,1.2c-2.6,4.6-5.4,7.5-8.9,9.2
	c-0.6,0.3-1.2,0.5-1.4,0.6C36,64,35.9,64,36,63.8c0.3-0.8,0.5-1.6,0.7-2.4c0.2-1,0.3-2.7,0.3-2.7c0,0-0.7,0.4-1.5,0.9
	c-2.8,1.9-5.1,2.8-7.9,3.2c-1.1,0.2-3.5,0.2-4.7-0.1c-2.1-0.4-4.5-1.3-6.4-2.5l-0.7-0.4l1.7-0.1c3.7-0.3,5.8-1.4,6.9-3.6
	c0.5-1.1,0.6-1.7,0.6-3.6c0-0.9,0-2.8,0-4.1c0-2.8,0.2-4.2,0.8-5.7c0.4-0.9,1.1-2,1.8-2.6l0.4-0.4l0.8,0.4c1.7,0.9,3.4,2.4,4,3.6
	c0.3,0.6,0.2,0.6,1.9,0.3c2.9-0.4,5.7-1.7,7.3-3.3l0.4-0.4l-0.1-0.9c-0.1-0.6-0.1-1.5-0.1-2.6c0.1-1.4,0.1-1.9,0.4-2.8
	c0.3-1.2,0.8-2.1,1.4-2.9c0.2-0.3,0.4-0.6,0.4-0.6c0,0-0.3,0-0.7,0c-1.8,0.2-3.2,0-3.6-0.5l-0.2-0.3l0.3-0.5
	c0.2-0.3,0.3-0.5,0.3-0.5c0,0-0.4,0.1-0.8,0.2c-1.2,0.3-2.2,0.3-2.6,0c-0.4-0.3-0.5-0.8-0.2-1.3c0.2-0.3,0.2-0.4,0-0.3
	c-1.4,0.6-2.4,0.8-3.4,0.9l-1.1,0.1l-0.4-0.4c-0.4-0.4-0.5-1-0.2-1.6c0.1-0.2,0.1-0.3,0.1-0.3c0,0-0.3,0.2-0.6,0.5
	c-0.6,0.5-1.4,1-1.8,1.1c-1,0.2-2-1.8-1.6-3.3C28.2,22.5,29.9,21.7,32.4,22.2"/>
<path d="M15.7,30.5c-2.7,0.8-5,1.5-5,1.5s0.5,0.6,1.3,1.3c0.7,0.7,1.3,1.3,1.2,1.3c0,0-1.8,0.7-3.8,1.4c-2.1,0.7-3.8,1.4-3.8,1.4
	c0,0,0.6,0.7,1.3,1.4l1.4,1.4l-1.4,0.9c-0.8,0.5-2.7,1.7-4.2,2.7c-1.5,1-2.7,1.8-2.7,1.8c0.1,0.1,14-3.4,14-3.5c0,0-0.5-0.7-1-1.5
	c-0.6-0.8-1-1.5-0.9-1.5c0,0,1.6-0.6,3.5-1.4c1.9-0.7,3.5-1.3,3.5-1.3c0,0-1.3-1.5-2.6-2.9l-0.3-0.3l2.4-2c1.3-1.1,2.4-2.1,2.4-2.1
	C20.9,29,20.6,29.1,15.7,30.5"/>
<path d="M18.9,41.1c-2.1,0.6-3.8,1.1-3.9,1.1c0,0,0.4,0.5,1,1c0.7,0.7,1,1,0.8,1c-0.1,0-1.4,0.5-3,1.1c-1.6,0.6-2.9,1-2.9,1.1
	c0,0,0.4,0.5,1,1.1c1.1,1,1.1,1,0.9,1.2c-0.1,0.1-1.5,1-3.1,2c-1.6,1-2.9,1.9-2.9,1.9c0,0,2.4-0.5,5.4-1.3c3.5-0.9,5.3-1.4,5.3-1.4
	c0-0.1-0.4-0.6-0.8-1.1c-0.4-0.5-0.7-1-0.7-1.1c0-0.1,1.2-0.5,2.7-1.1c1.4-0.5,2.7-1,2.7-1c0,0-0.5-0.6-1.1-1.3
	c-0.9-1-1.1-1.3-1-1.4c0.1-0.1,0.9-0.8,1.8-1.6c0.9-0.8,1.6-1.4,1.6-1.5C22.9,40,22.8,40,18.9,41.1"/>
</svg>
