<?xml version="1.0" encoding="UTF-8" standalone="no"?>
<svg width="65px" height="56px" viewBox="0 0 65 56" version="1.1" xmlns="http://www.w3.org/2000/svg" xmlns:xlink="http://www.w3.org/1999/xlink">
    <!-- Generator: Sketch 39.1 (31720) - http://www.bohemiancoding.com/sketch -->
    <title>icon-xl-device</title>
    <desc>Created with Sketch.</desc>
    <defs></defs>
    <g id="Symbols" stroke="none" stroke-width="1" fill="none" fill-rule="evenodd">
        <g id="icon-xl-device" fill="#607D8B">
            <g>
                <path d="M63.984127,2 L62.984127,1 L62.984127,42.6507937 L63.984127,41.6507937 L1,41.6507937 L2,42.6507937 L2,1 L1,2 L63.984127,2 Z M2.22044605e-16,0 L2.22044605e-16,1 L2.22044605e-16,42.6507937 L0,43.6507937 L1,43.6507937 L63.984127,43.6507937 L64.984127,43.6507937 L64.984127,42.6507937 L64.984127,1 L64.984127,0 L63.984127,0 L1,0 L2.22044605e-16,0 Z" id="Rectangle-path"></path>
                <polygon id="Shape" points="43 56 43 54 23 54 23 56"></polygon>
                <polygon id="Shape" points="34 43 32 43 32 55.1904762 34 55.1904762"></polygon>
                <polygon id="Shape" points="65 35.5238095 65 33.5238095 1 33.5238095 1 35.5238095"></polygon>
            </g>
        </g>
    </g>
</svg>