<svg xmlns="http://www.w3.org/2000/svg" viewBox="0 0 64 64"><title>icon-zeus-circle</title><g fill="#FFF"><path d="M32 2.2C15.6 2.2 2.2 15.6 2.2 32S15.6 61.8 32 61.8 61.8 48.4 61.8 32 48.4 2.2 32 2.2M32 64C14.4 64 0 49.6 0 32S14.4 0 32 0s32 14.4 32 32-14.4 32-32 32"/><path d="M42.1 30c-.2-.3-.5-.6-.9-.6h-8.8l5-13.7c.1-.3.1-.7-.1-1-.2-.3-.5-.4-.9-.4h-7.2c-.4 0-.8.3-1 .7l-6.3 19.8c-.1.3-.1.7.1 1 .2.3.5.4.9.4h7.5L26 50.5c-.2.5.1 1 .5 1.2.2.1.3.1.5.1.3 0 .6-.2.8-.5L42 31.1c.2-.3.3-.7.1-1.1"/></g></svg>