<?xml version="1.0" encoding="utf-8"?>
<!-- Generator: Adobe Illustrator 18.0.0, SVG Export Plug-In . SVG Version: 6.00 Build 0)  -->
<!DOCTYPE svg PUBLIC "-//W3C//DTD SVG 1.1//EN" "http://www.w3.org/Graphics/SVG/1.1/DTD/svg11.dtd">
<svg version="1.1" id="Layer_1" xmlns="http://www.w3.org/2000/svg" xmlns:xlink="http://www.w3.org/1999/xlink" x="0px" y="0px"
	 viewBox="0 0 64 64" enable-background="new 0 0 64 64" xml:space="preserve">
<title>icon-zeus-circle</title>
<desc>Created with Sketch.</desc>
<g id="Symbols">
	<g id="icon-zeus-circle">
		<g>
			<path id="Fill-1" fill="#FFFFFF" d="M32,2.2C15.6,2.2,2.2,15.6,2.2,32S15.6,61.8,32,61.8S61.8,48.4,61.8,32S48.4,2.2,32,2.2
				 M32,64C14.4,64,0,49.6,0,32S14.4,0,32,0s32,14.4,32,32S49.6,64,32,64"/>
			<path id="Fill-3" fill="#FFFFFF" d="M42.1,30c-0.2-0.3-0.5-0.6-0.9-0.6l-8.8,0l5-13.7c0.1-0.3,0.1-0.7-0.1-1
				c-0.2-0.3-0.5-0.4-0.9-0.4h-7.2c-0.4,0-0.8,0.3-1,0.7l-6.3,19.8c-0.1,0.3-0.1,0.7,0.1,1c0.2,0.3,0.5,0.4,0.9,0.4l7.5,0L26,50.5
				c-0.2,0.5,0.1,1,0.5,1.2c0.2,0.1,0.3,0.1,0.5,0.1c0.3,0,0.6-0.2,0.8-0.5L42,31.1C42.2,30.8,42.3,30.4,42.1,30"/>
		</g>
	</g>
</g>
</svg>
