<?xml version="1.0" encoding="UTF-8" standalone="no"?>
<svg width="45px" height="67px" viewBox="0 0 45 67" version="1.1" xmlns="http://www.w3.org/2000/svg" xmlns:xlink="http://www.w3.org/1999/xlink">
    <!-- Generator: Sketch 39.1 (31720) - http://www.bohemiancoding.com/sketch -->
    <title>icon-md-device</title>
    <desc>Created with Sketch.</desc>
    <defs></defs>
    <g id="Symbols" stroke="none" stroke-width="1" fill="none" fill-rule="evenodd">
        <g id="icon-md-device" fill="#607D8B">
            <g>
                <path d="M44,2 L43,1 L43,66 L44,65 L1,65 L2,66 L2,1 L1,2 L44,2 Z M0,0 L0,1 L0,66 L0,67 L1,67 L44,67 L45,67 L45,66 L45,1 L45,0 L44,0 L1,0 L0,0 Z" id="Rectangle-path"></path>
                <polygon id="Shape" points="26 6 26 4 18 4 18 6"></polygon>
                <polygon id="Shape" points="44 55 44 53 1 53 1 55"></polygon>
                <polygon id="Shape" points="44 10 44 8 1 8 1 10"></polygon>
                <path d="M25,60 C25,58.3431458 23.6568542,57 22,57 C20.3431458,57 19,58.3431458 19,60 C19,61.6568542 20.3431458,63 22,63 C23.6568542,63 25,61.6568542 25,60 Z M21,60 C21,59.4477153 21.4477153,59 22,59 C22.5522847,59 23,59.4477153 23,60 C23,60.5522847 22.5522847,61 22,61 C21.4477153,61 21,60.5522847 21,60 Z" id="Oval"></path>
            </g>
        </g>
    </g>
</svg>