<svg width="65" height="43" viewBox="0 0 65 43" xmlns="http://www.w3.org/2000/svg"><title>icon-lg-device</title><g fill="#607D8B" fill-rule="evenodd"><path d="M63.008 42.041l.996-.958H.996l.996.958V.96l-.996.958h63.008L63.008.96V42.04zM65 0H0V43h65V0z"/><path d="M58.918 25.535h2v-7.863h-2zM11.978 42.244h2V.964h-2zM54.836 42.244h2V.964h-2zM6.855 24.532c1.68 0 3.041-1.31 3.041-2.928 0-1.618-1.361-2.93-3.04-2.93-1.68 0-3.042 1.312-3.042 2.93 0 1.617 1.362 2.928 3.041 2.928zm0-3.931c.575 0 1.041.449 1.041 1.003 0 .553-.466 1.002-1.04 1.002-.576 0-1.042-.449-1.042-1.002 0-.554.466-1.003 1.041-1.003z"/></g></svg>