<svg width="16" height="14" viewBox="0 0 16 14" xmlns="http://www.w3.org/2000/svg"><title>icon-github</title><path d="M6.154 9.23c0 .257-.04.52-.12.79-.08.268-.218.512-.414.73a.907.907 0 0 1-1.394 0 1.893 1.893 0 0 1-.413-.73c-.08-.27-.12-.533-.12-.79 0-.256.04-.518.12-.788.08-.269.217-.513.413-.73a.907.907 0 0 1 1.394 0c.196.217.334.461.414.73.08.27.12.532.12.789zm6.154 0c0 .257-.04.52-.12.79-.08.268-.218.512-.414.73a.907.907 0 0 1-1.394 0 1.893 1.893 0 0 1-.414-.73c-.08-.27-.12-.533-.12-.79 0-.256.04-.518.12-.788.08-.269.218-.513.414-.73a.907.907 0 0 1 1.394 0c.196.217.333.461.414.73.08.27.12.532.12.789zm1.538 0c0-.768-.221-1.422-.663-1.96-.443-.54-1.042-.808-1.798-.808-.263 0-.888.067-1.875.201A9.9 9.9 0 0 1 8 6.77a9.9 9.9 0 0 1-1.51-.106c-.974-.134-1.599-.201-1.875-.201-.756 0-1.355.269-1.798.807-.442.539-.663 1.193-.663 1.962 0 .564.102 1.056.308 1.476.205.42.464.75.778.99s.706.433 1.173.577c.468.144.917.239 1.347.284.43.045.907.067 1.432.067h1.616c.525 0 1.003-.022 1.432-.067.43-.045.879-.14 1.347-.284a3.713 3.713 0 0 0 1.173-.577c.314-.24.573-.57.778-.99.206-.42.308-.912.308-1.476zM16 7.539c0 1.327-.196 2.388-.587 3.183-.243.494-.581.92-1.014 1.279a5.206 5.206 0 0 1-1.356.827 8.216 8.216 0 0 1-1.634.457c-.619.112-1.169.182-1.65.211a27.01 27.01 0 0 1-1.605.043c-.5 0-.955-.01-1.366-.028-.41-.02-.883-.06-1.418-.12a8.548 8.548 0 0 1-1.466-.289 10.128 10.128 0 0 1-1.317-.495 4.253 4.253 0 0 1-1.164-.78c-.34-.32-.615-.688-.827-1.105C.2 9.933 0 8.871 0 7.538 0 6.02.436 4.75 1.308 3.731a5.193 5.193 0 0 1-.26-1.635c0-.743.164-1.442.49-2.096.693 0 1.302.127 1.827.38.526.253 1.132.649 1.818 1.187a12.79 12.79 0 0 1 2.97-.336c.95 0 1.847.102 2.693.307.673-.525 1.273-.913 1.798-1.163C13.17.125 13.776 0 14.462 0c.326.654.49 1.353.49 2.096 0 .558-.087 1.096-.26 1.616C15.564 4.737 16 6.012 16 7.538z" fill="#ECEFF1" fill-rule="evenodd"/></svg>