<?xml version="1.0" encoding="UTF-8" standalone="no"?>
<svg width="29px" height="54px" viewBox="0 0 29 54" version="1.1" xmlns="http://www.w3.org/2000/svg" xmlns:xlink="http://www.w3.org/1999/xlink">
    <!-- Generator: Sketch 39.1 (31720) - http://www.bohemiancoding.com/sketch -->
    <title>icon-sm-device</title>
    <desc>Created with Sketch.</desc>
    <defs></defs>
    <g id="Symbols" stroke="none" stroke-width="1" fill="none" fill-rule="evenodd">
        <g id="icon-sm-device" fill="#607D8B">
            <g>
                <path d="M28,2 L27,1 L27,53 L28,52 L1,52 L2,53 L2,1 L1,2 L28,2 Z M0,0 L0,1 L0,53 L0,54 L1,54 L28,54 L29,54 L29,53 L29,1 L29,0 L28,0 L1,0 L0,0 Z" id="Rectangle-path"></path>
                <polygon id="Shape" points="18 6 18 4 11 4 11 6"></polygon>
                <polygon id="Shape" points="28 43 28 41 1 41 1 43"></polygon>
                <polygon id="Shape" points="28 10 28 8 1 8 1 10"></polygon>
                <path d="M17,47.5 C17,46.1192881 15.8807119,45 14.5,45 C13.1192881,45 12,46.1192881 12,47.5 C12,48.8807119 13.1192881,50 14.5,50 C15.8807119,50 17,48.8807119 17,47.5 Z M14,47.5 C14,47.2238576 14.2238576,47 14.5,47 C14.7761424,47 15,47.2238576 15,47.5 C15,47.7761424 14.7761424,48 14.5,48 C14.2238576,48 14,47.7761424 14,47.5 Z" id="Oval"></path>
            </g>
        </g>
    </g>
</svg>