<svg width="160" height="67" viewBox="0 0 160 67" xmlns="http://www.w3.org/2000/svg"><title>logo-zeus</title><g fill="#000" fill-rule="evenodd"><path d="M159.126 27.764a1.847 1.847 0 0 0-1.64-.995l-15.606.005 8.776-24.295a1.852 1.852 0 0 0-1.74-2.48h-12.65c-.788 0-1.491.5-1.758 1.27L123.36 36.285a1.85 1.85 0 0 0 1.747 2.46l13.309.003-7.69 25.224c-.27.89.126 1.797.962 2.205a1.822 1.822 0 0 0 2.328-.608l24.99-35.891c.394-.568.44-1.302.12-1.914M77.991 40.204V0h12.94v39.813c0 2.276.012 3.928.036 4.959.023 1.031.082 2.287.177 3.768.094 1.481.26 2.518.497 3.11.237.593.563 1.233.978 1.92.414.687.954 1.137 1.617 1.35.664.214 1.47.32 2.417.32.948 0 1.754-.106 2.418-.32.664-.213 1.203-.657 1.618-1.333.414-.674.74-1.308.976-1.9.237-.593.403-1.618.498-3.076.095-1.457.154-2.69.178-3.697.023-1.007.035-2.636.035-4.887V0h12.94v40.204c0 2.039-.06 3.887-.178 5.546a45.947 45.947 0 0 1-.675 5.154c-.332 1.778-.782 3.347-1.351 4.71a17.646 17.646 0 0 1-2.275 3.91 12.553 12.553 0 0 1-3.36 3.076c-1.29.806-2.849 1.444-4.674 1.918-1.824.474-3.874.712-6.15.712-2.274 0-4.325-.238-6.149-.712-1.825-.474-3.377-1.112-4.656-1.918a12.664 12.664 0 0 1-3.343-3.076 17.6 17.6 0 0 1-2.274-3.91c-.569-1.363-1.025-2.932-1.369-4.71a43.496 43.496 0 0 1-.693-5.154 78.387 78.387 0 0 1-.178-5.546M40.891 64.003V.018h26.697v8.886H53.83v17.419h9.74v9.1h-9.74v19.694h13.757v8.886zM0 63.986V55.88L16.885 8.922H1.955V.035H29.54v8.141L12.584 55.1H29.54v8.887z"/></g></svg>