<?xml version="1.0" encoding="utf-8"?>
<!-- Generator: Adobe Illustrator 18.0.0, SVG Export Plug-In . SVG Version: 6.00 Build 0)  -->
<!DOCTYPE svg PUBLIC "-//W3C//DTD SVG 1.1//EN" "http://www.w3.org/Graphics/SVG/1.1/DTD/svg11.dtd">
<svg version="1.1" id="Layer_1" xmlns="http://www.w3.org/2000/svg" xmlns:xlink="http://www.w3.org/1999/xlink" x="0px" y="0px"
	 viewBox="420 0 1080 1080" enable-background="new 420 0 1080 1080" xml:space="preserve">
<g>
	<path fill="#FFFFFF" d="M959.5,0C1257.6,0,1500,242.4,1500,540.5S1257.6,1080,960.5,1080C661.4,1080,420,838.6,420,539.5
		C420,242.4,662.4,0,959.5,0z M1000.9,911.7c19.2,3.8,36.5,7.7,54.8,10.6c34.6,4.8,68.3,8.7,102.9,3.8
		c52.9-8.7,92.3-35.6,114.4-85.6c11.5-26,15.4-53.9,14.4-82.7c-1-36.5-7.7-71.2-28.9-101.9c-1.9-2.9-2.9-7.7-2.9-11.5
		c0-71.2,0-143.3,0-214.5c0-3.8,1.9-8.7,3.8-12.5c4.8-10.6,11.5-21.2,15.4-31.7c11.5-30.8,14.4-61.5,10.6-94.2
		c-6.7-66.4-50-126.9-129.8-136.6c-66.4-7.7-129.8,23.1-157.7,88.5c-1.9,3.8-2.9,7.7-4.8,11.5c-25,0-50,0-75,0c0-27.9,0-55.8,0-84.6
		c-19.2-3.8-36.5-7.7-54.8-10.6c-33.7-4.8-68.3-8.7-101.9-3.8c-60.6,9.6-101.9,42.3-121.2,101c-11.5,36.5-10.6,73.1-3.8,110.6
		c5.8,28.9,17.3,54.8,38.5,76c3.8,3.8,3.8,6.7,3.8,11.5c0,59.6,0,119.3,0,178.9c0,5.8-1.9,9.6-4.8,13.5
		c-15.4,15.4-25,33.7-32.7,53.9c-11.5,32.7-13.5,66.4-7.7,100c5.8,37.5,22.1,70.2,51.9,95.2c29.8,24,64.4,34.6,101.9,32.7
		c60.6-2.9,104.8-30.8,131.8-85.6c1.9-3.8,2.9-6.7,4.8-10.6c26,0,51,0,77.9,0C1000.9,857.8,1000.9,883.8,1000.9,911.7z"/>
	<path fill="#FFFFFF" d="M1000.9,745.3c-24,0-45.2,0-67.3,0c-4.8-42.3-20.2-79.8-52.9-108.7c-32.7-27.9-73.1-36.5-115.4-33.7
		c0-42.3,0-84.6,0-126.9c22.1,0,43.3-4.8,65.4-13.5c0,38.5,0,76,0,114.4c29.8,0,57.7,0,87.5,0c0-78.9,0-157.7,0-236.6
		c23.1,0,45.2,0,66.4,0c13.5,96.2,86.6,151,184.6,135.6c0,42.3,0,85.6,0,128.9c-26.9-1-53.9,1.9-80.8,13.5c0-39.4,0-76,0-113.5
		c-29.8,0-57.7,0-87.5,0c0,20.2,0,39.4,0,59.6c0,20.2,0,40.4,0,61.5c0,20.2,0,40.4,0,59.6C1000.9,704,1000.9,724.2,1000.9,745.3z"/>
	<path fill="#FFFFFF" d="M1198,315.4c0,18.3-2.9,36.5-10.6,53.9c-13.5,26.9-37.5,37.5-66.4,30.8c-13.5-2.9-24-11.5-31.7-23.1
		c-8.7-13.5-13.5-28.9-14.4-44.2c-2.9-23.1-1-46.2,7.7-68.3c12.5-28.9,38.5-42.3,69.2-33.7c16.3,3.8,26.9,14.4,34.6,28.9
		C1194.2,274.1,1198,292.4,1198,315.4z"/>
	<path fill="#FFFFFF" d="M720.1,765.5c0-18.3,1.9-36.5,10.6-53.9c13.5-26.9,38.5-38.5,68.3-30.8c12.5,3.8,22.1,11.5,29.8,22.1
		c9.6,13.5,13.5,28.9,15.4,45.2c2.9,23.1,1,45.2-7.7,66.4c-12.5,29.8-39.4,42.3-70.2,34.6c-15.4-3.8-26-14.4-33.7-27.9
		C723.9,806.9,720.1,788.6,720.1,765.5z"/>
	<path fill="#FFFFFF" d="M829.7,389.5c-22.1,10.6-45.2,16.3-70.2,7.7c-15.4-4.8-25-15.4-30.8-30.8c-8.7-21.2-10.6-44.2-7.7-67.3
		c1.9-12.5,4.8-25,9.6-36.5c8.7-21.2,26-33.7,49-36.5c16.3-1.9,32.7-1,50,1.9C829.7,282.7,829.7,335.6,829.7,389.5z"/>
	<path fill="#FFFFFF" d="M1088.4,852.1c0-5.8,0-9.6,0-13.5c0-45.2,0-90.4,0-135.6c0-12.5,0-12.5,12.5-17.3
		c17.3-5.8,33.7-8.7,51.9-4.8c15.4,3.8,26.9,11.5,33.7,26c4.8,10.6,8.7,22.1,10.6,33.7c3.8,23.1,2.9,46.2-5.8,68.3
		c-10.6,30.8-32.7,45.2-64.4,45.2C1114.4,854,1101.9,852.1,1088.4,852.1z"/>
</g>
</svg>
